<svg width="32" height="32" viewBox="0 0 32 32" fill="none" xmlns="http://www.w3.org/2000/svg">
<path d="M15.9958 11.5528C13.5475 11.5528 11.5495 13.5508 11.5495 15.9991C11.5495 18.4474 13.5475 20.4453 15.9958 20.4453C18.444 20.4453 20.442 18.4474 20.442 15.9991C20.442 13.5508 18.444 11.5528 15.9958 11.5528ZM29.3312 15.9991C29.3312 14.1579 29.3479 12.3334 29.2445 10.4955C29.1411 8.36075 28.6541 6.46617 27.0931 4.90514C25.5287 3.34078 23.6375 2.85713 21.5027 2.75373C19.6615 2.65033 17.837 2.66701 15.9991 2.66701C14.1579 2.66701 12.3334 2.65033 10.4955 2.75373C8.36075 2.85713 6.46617 3.34412 4.90514 4.90514C3.34078 6.4695 2.85713 8.36075 2.75373 10.4955C2.65033 12.3367 2.66701 14.1612 2.66701 15.9991C2.66701 17.837 2.65033 19.6648 2.75373 21.5027C2.85713 23.6374 3.34412 25.532 4.90514 27.093C6.46951 28.6574 8.36075 29.1411 10.4955 29.2445C12.3367 29.3479 14.1612 29.3312 15.9991 29.3312C17.8403 29.3312 19.6648 29.3479 21.5027 29.2445C23.6375 29.1411 25.532 28.6541 27.0931 27.093C28.6574 25.5287 29.1411 23.6374 29.2445 21.5027C29.3512 19.6648 29.3312 17.8403 29.3312 15.9991ZM15.9958 22.8403C12.2099 22.8403 9.1546 19.7849 9.1546 15.9991C9.1546 12.2133 12.2099 9.15794 15.9958 9.15794C19.7816 9.15794 22.8369 12.2133 22.8369 15.9991C22.8369 19.7849 19.7816 22.8403 15.9958 22.8403ZM23.1171 10.4755C22.2332 10.4755 21.5194 9.76167 21.5194 8.87775C21.5194 7.99384 22.2332 7.28004 23.1171 7.28004C24.001 7.28004 24.7148 7.99384 24.7148 8.87775C24.7151 9.08764 24.6739 9.29552 24.5937 9.48948C24.5135 9.68345 24.3959 9.85968 24.2475 10.0081C24.099 10.1565 23.9228 10.2742 23.7288 10.3544C23.5349 10.4346 23.327 10.4757 23.1171 10.4755Z" fill="white"/>
</svg>
