<svg width="32" height="32" viewBox="0 0 32 32" fill="none" xmlns="http://www.w3.org/2000/svg">
<path d="M8.2675 29.7677H2.4625V11.0735H8.2675V29.7677ZM5.36188 8.52348C3.50563 8.52348 2 6.98594 2 5.12965C2 4.23801 2.3542 3.38288 2.98467 2.75239C3.61514 2.1219 4.47025 1.7677 5.36188 1.7677C6.2535 1.7677 7.10861 2.1219 7.73908 2.75239C8.36955 3.38288 8.72375 4.23801 8.72375 5.12965C8.72375 6.98594 7.2175 8.52348 5.36188 8.52348ZM24.2013 29.7677V20.6675C24.2013 18.4987 24.1575 15.7174 21.1831 15.7174C18.165 15.7174 17.7025 18.0737 17.7025 20.5112V29.7677H11.9038V11.0735H17.4712V13.6236H17.5525C18.3275 12.1548 20.2206 10.6048 23.045 10.6048C28.92 10.6048 30 14.4736 30 19.4987V29.7677H24.2013Z" fill="white"/>
</svg>
