<svg width="32" height="32" viewBox="0 0 32 32" fill="none" xmlns="http://www.w3.org/2000/svg">
<path d="M31.3299 8.68281C31.1488 8.03654 30.7959 7.45144 30.3087 6.98971C29.8079 6.51378 29.194 6.17333 28.525 6.00051C26.0213 5.3406 15.9907 5.3406 15.9907 5.3406C11.809 5.29302 7.62837 5.50227 3.47236 5.96718C2.80337 6.15277 2.19061 6.50082 1.6886 6.98037C1.19533 7.45498 0.838044 8.04023 0.651402 8.68148C0.203053 11.0968 -0.0147857 13.5493 0.0008228 16.0058C-0.015175 18.4602 0.202129 20.9118 0.651402 23.3302C0.834044 23.9688 1.19 24.5513 1.6846 25.0219C2.1792 25.4925 2.79511 25.8325 3.47236 26.0125C6.00935 26.6711 15.9907 26.6711 15.9907 26.6711C20.1777 26.7187 24.3636 26.5094 28.525 26.0445C29.194 25.8717 29.8079 25.5312 30.3087 25.0553C30.802 24.5847 31.1526 23.9994 31.3286 23.3622C31.7887 20.9478 32.0124 18.4943 31.9965 16.0365C32.0311 13.5683 31.8077 11.1032 31.3299 8.68148V8.68281ZM12.8018 20.5705V11.4424L21.1473 16.0072L12.8018 20.5705Z" fill="white"/>
</svg>
