<?xml version="1.0" encoding="UTF-8"?><svg id="uuid-03cd2327-41ac-4eae-b859-b8450313ee7f" xmlns="http://www.w3.org/2000/svg" viewBox="0 0 116.5 98.17"><defs><style>.uuid-320b4dd5-b392-47c7-be7c-f5f09b16a2d9{fill:none;}.uuid-cff007cf-026b-49cf-be0b-96de1f50081a{fill:#002b5c;}</style></defs><path class="uuid-320b4dd5-b392-47c7-be7c-f5f09b16a2d9" d="M102.65,12.84c-1.27,1.09-3.51,2.39-4.89,3.66-.91.84-1.84,1.65-2.36,2.1.13.21.22.36.22.44.05.57,2.29,3.4,3.65,4.36,1.34.96,3.66-.14,3.66-.14,0,0,.1-.7,1.47-.64,1.38.06,9.77-6.78,9.99-10.84.24-4.3-2.25-3.45-2.25-3.45,0,0-.75-.15-.55-.84.19-.7-1.59.3-2.01.13-.38-.16-.07-.39-.02-.42-1.12.66-3.39,2.05-4.3,2.89-1.22,1.13-1.36,1.69-2.63,2.78Z"/><path class="uuid-cff007cf-026b-49cf-be0b-96de1f50081a" d="M20.93,74.63l3.44,3.97v.02c5.88-4.76,16.37-13.28,27.43-22.32-1.37-1.54-2.74-3.09-4.11-4.61-10.78,9.27-21.02,18.03-26.77,22.95Z"/><path class="uuid-cff007cf-026b-49cf-be0b-96de1f50081a" d="M64.72,37.93c.01-.06.02-.1.02-.1,0,0-.18-.23-.38-.51-1.24,1.07-2.5,2.16-3.78,3.26.17.17.33.34.5.51.81-.73,2.25-1.98,3.63-3.16Z"/><path class="uuid-cff007cf-026b-49cf-be0b-96de1f50081a" d="M67.45,42.23l-2.95,2.35c.23.24.47.48.7.73,1.11-.91,2.2-1.81,3.28-2.7-.25-.1-.47-.23-.47-.23,0,0-.35-.05-.58-.14Z"/><path class="uuid-cff007cf-026b-49cf-be0b-96de1f50081a" d="M87.97,25.25c-1.7,1.47-3.29,2.81-3.42,2.79-.28-.05-.85-1.23-1.64-2.14-.8-.91-1.83-1.54-1.78-1.75.03-.1,1.8-1.76,3.62-3.4-.1-.12-.35-.45-.55-.75-4.06,3.63-10.96,9.64-18.85,16.46.24.26.47.52.47.52,0,0,0,0,.01,0,1.21-1.02,2.19-1.8,2.31-1.83.33-.06.31.02.42.05.12.02,1.03.5,1.78,1.4,1.12,1.35,1.29,2.28,1.29,2.28l-2.22,1.77c.08.1.16.2.22.31.15.27-.3.77-.3.77,0,0,.02.05.04.12,7.94-6.55,14.98-12.43,19.41-16.26-.32-.06-.76-.34-.76-.34,0,0-.03,0-.06-.01Z"/><path class="uuid-cff007cf-026b-49cf-be0b-96de1f50081a" d="M88.65,16.17l.21-.23c-.29.04-.58.21-.87.56-.26.31-1.3,1.29-2.96,2.78.2.21.47.52.61.68,1.54-1.38,2.92-2.57,3.04-2.57.29-.01,1.53,1.15,2.21,1.96.67.81,1.31,2.17,1.31,2.17,0,0-1.27,1.13-2.77,2.45,0,.02.02.03.03.04.15.27-.24.72-.24.72,0,0,.09.21.07.44,2.37-2.06,3.9-3.46,4.27-3.95l-.25.15-4.67-5.2Z"/><path class="uuid-cff007cf-026b-49cf-be0b-96de1f50081a" d="M93.04,21.05s-.53-.88-1.73-2.45c-1.2-1.57-2.05-2.16-2.05-2.16l.84-.87c-.19-.27-.33-.5-.36-.62l-.88.98-.21.23,4.67,5.2.25-.15.83-.51c-.19-.18-.35-.33-.46-.42l-.89.76Z"/><path class="uuid-cff007cf-026b-49cf-be0b-96de1f50081a" d="M1.06,91.94c.4-.78,5.51-5.16,5.51-5.16l3.69-3.28c-.27-.07-.56-.09-.82.01-1.14.46-1.15,1.26-2.07,2.02-.92.76-5.76,3.79-6.75,5.43-.97,1.62-.79,2.34.6,3.88,1.17,1.29,2.25,1.03,3.6.63,1.46-.44,3.82-2.91,4.4-3.59,3.28-3.91,4-1.61,5.97-3.37,1.09-.98.11-1.71.32-2.19.22-.48.71-.93.71-.93l-.09-.03c-5.66,4.35-12.17,9.34-12.51,9.54-.9.54-3.04-2.01-2.56-2.95Z"/><path class="uuid-cff007cf-026b-49cf-be0b-96de1f50081a" d="M20.93,74.63l-.07-.08-.5-.05-10.12,9-3.69,3.28s-5.1,4.37-5.51,5.16c-.49.94,1.65,3.49,2.56,2.95.34-.2,6.85-5.19,12.51-9.54,4.43-3.41,8.34-6.41,8.34-6.41l-.09-.33v-.02s-3.44-3.97-3.44-3.97ZM3.45,93.9c-.65.38-1.87-.73-1.53-1.4.29-.56,4.33-3.74,4.33-3.74l14.43-12.93.24.07,2.09,2.45.07.25s-19.2,15.05-19.62,15.3Z"/><path class="uuid-cff007cf-026b-49cf-be0b-96de1f50081a" d="M69.64,40.98c-.07-.12-.15-.22-.22-.31-.3-.37-.64-.6-.64-.6,0,0-.65-.53-.88-.76-.22-.23-.94-1.75-1.19-1.96-.24-.21-.82-.33-.88-.34,0,0-.01,0-.01,0,0,0-.23-.26-.47-.52-.19-.21-.38-.41-.47-.47-.17-.13-.53-.17-.73-.06-.2.11-.35.27-.27.58.04.16.27.51.48.81.2.27.38.51.38.51,0,0-.01.04-.02.1-.03.17-.07.5.04.75.16.33.9.88.9.88,0,0,.3.85.53,1.21.23.37.94,1.31,1.13,1.42.03.02.08.03.12.05.23.09.58.14.58.14,0,0,.22.13.47.23.22.09.47.15.6.07.37-.22.33-.61.28-.8-.02-.07-.04-.12-.04-.12,0,0,.45-.5.3-.77ZM64.32,36.56c.05-.24.32-.2.42-.15.1.04.61.38.54.51-.07.13-.19.36-.34.36s-.65-.49-.61-.72ZM67.46,39.65c.15-.01.13.08.56.27.44.18.93.45,1.12.86.19.42-.1.63-.1.63,0,0-.4-.62-.8-.83-.41-.21-.64-.4-.64-.4,0,0-.27-.52-.13-.53ZM65.46,38.86c-.04-.08,0-.74.04-.86.05-.12.11-.29.35-.36.25-.07.44.03.57.16.14.13.97,1.32.97,1.32l-.25-.08s-.67-.62-.95-.63c-.29,0-.7.55-.74.46ZM67.09,41.21c-.15-.14-.38-.54-.38-.54,0,0-.39-.75-.46-.88-.13-.26-.07-.61.31-.49.46.14.7,1.4.85,1.75.17.35.05.53-.33.16ZM68.1,41.38s-.34-.46-.23-.46c.11-.01.03.08.38.23.34.14.35.3.5.63.15.33-.02.4-.02.4,0,0-.03-.06-.33-.25-.16-.1-.3-.54-.3-.54Z"/><path class="uuid-cff007cf-026b-49cf-be0b-96de1f50081a" d="M89.22,24.74s.39-.45.24-.72c0-.02-.02-.03-.03-.04-.33-.52-.81-.86-.81-.86,0,0-.63-.53-.85-.76-.21-.23-.95-1.7-1.19-1.92-.24-.21-.84-.37-.84-.37,0,0-.04-.05-.1-.11-.14-.16-.41-.47-.61-.68-.08-.09-.15-.16-.2-.19-.17-.13-.5-.19-.68-.1-.18.1-.31.25-.23.54.03.1.14.29.27.49.2.3.45.62.55.75.03.03.04.05.04.05,0,0-.11.48.05.8.16.32.88.87.88.87,0,0,.32.82.55,1.17.23.35.92,1.28,1.11,1.4.16.09.47.17.59.19.03,0,.06.01.06.01,0,0,.44.28.76.34.1.02.19.02.25-.02.18-.11.24-.27.25-.42.02-.23-.07-.44-.07-.44ZM84.34,19.59c.04-.22.29-.17.38-.13.09.04.58.39.52.51-.06.12-.17.33-.31.33-.13,0-.63-.49-.59-.71ZM85.5,21.83c-.04-.08-.05-.71,0-.82.04-.12.08-.28.31-.33.23-.06.41.04.54.17.13.13.96,1.3.96,1.3l-.23-.09s-.65-.61-.91-.64c-.27-.02-.62.49-.67.4ZM87.1,24.12c-.14-.14-.37-.53-.37-.53,0,0-.4-.73-.46-.85-.13-.25-.09-.58.26-.45.44.16.72,1.36.88,1.7.16.34.06.51-.31.14ZM87.39,22.66c.13,0,.12.08.53.28.42.2.88.46,1.07.86.19.4-.07.59-.07.59,0,0-.4-.6-.78-.82-.39-.21-.61-.41-.61-.41,0,0-.27-.5-.14-.51ZM88.67,25.1s-.02-.06-.32-.25c-.15-.1-.3-.52-.3-.52,0,0-.34-.45-.24-.46.1,0,.04.08.36.23.33.15.35.31.49.62.16.32,0,.37,0,.37Z"/><path class="uuid-cff007cf-026b-49cf-be0b-96de1f50081a" d="M97.77,16.5c1.38-1.27,3.61-2.57,4.89-3.66,1.27-1.09,1.41-1.64,2.63-2.78.91-.84,3.17-2.22,4.3-2.89,0,0,0,0,0,0,0,0,.54-1.57.25-2.02-.3-.45-3.26-.68-3.26-.68,0,0-1.39-.38-1.93-.61-.8.38-2.18,1.07-2.94,1.61-2.02,1.42-8.28,7.03-10.06,8.62,1.31,1.39,3.13,3.55,3.75,4.51.53-.46,1.45-1.26,2.36-2.1ZM107.43,4.97s1.24.33,2.12.52c.46.1-.73,1.39-.73,1.39l-.29.32s.33-.66-.12-1.09c-.67-.64-2.05-1.36-2.05-1.36l1.07.22ZM105.11,4.57s.5.5,1.62,1.1c1.15.62,1.33,1.77,1.33,1.77l-1.24.61s-.6-1.15-1.06-1.59c-.66-.63-1.32-1.5-1.32-1.5l.67-.4ZM103.29,5.23s.69.51,1.59,1.41c.76.76,1.41,1.85,1.41,1.85l-1.24,1.06s-1.05-1.6-1.5-2.03c-.66-.64-1.68-1.32-1.68-1.32l1.42-.97ZM101.44,6.73s.69.6,1.59,1.5c.76.76,1.41,1.76,1.41,1.76l-1.14,1.15s-1.05-1.51-1.5-1.94c-.67-.64-.34-.5-1.59-1.32l1.23-1.14ZM99.41,8.23s.77.51,1.67,1.41c.76.76,1.68,1.94,1.68,1.94l-1.06,1.06s-1.23-1.69-1.67-2.12c-.67-.64-1.68-1.33-1.68-1.33l1.06-.96ZM97.73,9.64s.78.52,1.68,1.41c.76.76,1.58,2.12,1.58,2.12l-1.24,1.06s-1.14-1.69-1.59-2.12c-.66-.64-1.58-1.42-1.58-1.42l1.14-1.06ZM95.89,11.22s.68.52,1.58,1.42c.76.75,1.59,2.21,1.59,2.21l-1.41,1.23s-.96-1.86-1.41-2.29c-.66-.64-1.67-1.33-1.67-1.33l1.33-1.23ZM92.45,13.96l1.4-.97s1.07.63,1.85,1.59c.68.82,1.33,1.94,1.33,1.94l-1.31,1.17s-1.12-1.58-1.56-2c-.62-.6-1.7-1.72-1.7-1.72Z"/><path class="uuid-cff007cf-026b-49cf-be0b-96de1f50081a" d="M116.33,9.5c-.1-.53-1.31-2.67-1.31-2.67,0,0,.38-.06.45-.29.06-.23.49-2.09-.06-3.56-.54-1.47-2.12-3.3-2.92-2.69-.8.6-.7,1.04-1.2,1.37-.51.35-5.92,1.11-6.28,1.41-.36.31-.89.5-.54.71.04.02.1.05.16.08.55.24,1.93.61,1.93.61,0,0,2.96.23,3.26.68.3.45-.25,2.02-.25,2.02,0,0,0,0,0,0-.05.03-.36.26.02.42.42.18,2.2-.83,2.01-.13-.2.69.55.84.55.84,0,0,2.48-.85,2.25,3.45-.22,4.06-8.62,10.9-9.99,10.84-1.37-.06-1.47.64-1.47.64,0,0-2.32,1.1-3.66.14-1.35-.96-3.6-3.79-3.65-4.36,0-.08-.09-.23-.22-.44-.62-.96-2.44-3.13-3.75-4.51-.57-.6-1.05-1.06-1.28-1.2-.91-.54-2-1.1-2-1.1l-1.51-1.45-.32-.07s-1.59-1.12-2.24-1.08c-.66.04-1.62.69-1.85,1.24-.23.55-.14,1.89.47,2.5.62.62,1.79.76,2.01-.12.21-.89-.61-1.33-.61-1.33,0,0-.51-.27-.05-.58.44-.3.89-.49,2.37.52,1.49,1.01,3.04,3.13,3.1,3.51,0,0,0,.02.01.03.03.12.17.35.36.62.49.71,1.3,1.7,1.3,1.7,0,0,2.06,2.72,2.39,2.89.03.01.08.06.15.12.11.09.27.24.46.42,1.11,1.04,3.34,3.23,3.95,3.46.79.3,4.42-.08,4.69.13.26.21,1.85,0,2.3-.39.46-.39,7.15-4.7,9.46-8.18,2.31-3.48,1.63-5.71,1.53-6.24Z"/><path class="uuid-cff007cf-026b-49cf-be0b-96de1f50081a" d="M57.94,60.7s.02.02,0,0c0,0,0,0,0,0Z"/><path class="uuid-cff007cf-026b-49cf-be0b-96de1f50081a" d="M61.09,41.09c-.17-.17-.33-.34-.5-.51-6.74-6.79-13.01-12.67-17.93-16.5C9.62-1.64,1.1.02,1.1.02l.07.97s24.35,26.46,35.73,38.75c3.04,3.28,6.85,7.51,10.8,11.93,1.36,1.52,2.74,3.07,4.11,4.61,9.54,10.75,18.64,21.2,18.64,21.2,0,0,11.17-.63,13.94.67,2.77,1.3-1.01,2.62.59,3.19,1.6.58,6.39-1.19,6.39-1.19l8.32,12.45s2.03-.45,5.23.99c3.19,1.44,5.68,5.2,6.41,4.47.52-.53-24.18-30.04-46.12-52.77-.23-.24-.47-.49-.7-.73-1.15-1.18-2.29-2.35-3.41-3.49ZM90.5,77.66s-8.01-1.81-10.92-2.09c-2.9-.29-8.99.03-8.99.03,0,0-.88-1.01-2.37-2.73-.27-.32,13.75.74,13.44.38-1.11-1.3-15.09-2.29-15.53-2.78-.61-.71-1.28-1.47-1.98-2.29-.39-.45,9.67.63,13.3.43-2.34-2.14-14.86-2.61-15.29-3.11-.47-.54-.96-1.1-1.46-1.66,1.99-.15,12.58.88,12.07.13-.56-.84-8.95-1.55-10.53-1.91-1.12-.26-3.1-.88-4.18-1.23-.07-.08-.1-.12-.11-.13.03.09-.44-.21-.45-.32-.03-.45,12.99.27,12.41-.51-.58-.79-8.75-1.11-10.3-1.4-1.26-.23-3.71-.89-4.55-1.12.89-.4,12.19-.33,11.63-1.08-.58-.79-8.42-.47-9.97-.76-1.18-.22-3.37-.8-4.35-1.07-.03-.04-.06-.07-.08-.09-.1.03-.5-.16-.51-.27-.02-.45,12.68-.37,12.1-1.16-.58-.78-8.34-.47-9.88-.75-.89-.16-2.35-.54-3.44-.83,2.85-.29,10.81-.46,10.32-1.1-.58-.78-8.04-.29-9.59-.57-1.1-.2-3.07-.72-4.13-1.01-.14-.15.13.16,0,.01.28.26-.3,0-.31-.11-.01-.45,11.62-.41,11.05-1.19-.58-.79-7.41-.48-8.95-.76-1.36-.25-4.03-.98-4.7-1.17,0,0-.01,0-.01-.01.7-.4,10.95-.36,10.39-1.12-.59-.79-7.87-.47-9.43-.76-.88-.16-2.34-.53-3.41-.82-.21-.22-.4-.44-.61-.66.97-.38,11.37-.26,10.82-1.01-.58-.79-7.92-.94-9.41-.71-1,.16-2.6-.33-3.61-.7-.22-.25-.45-.5-.67-.73,2.19-.3,11.21-.34,10.7-1.02-.58-.79-8.53-.37-10.07-.66-.86-.16-2.01-.49-2.87-.75-.04-.04-.08-.09-.12-.13,1.68-.32,10.69-.25,10.16-.96-.58-.78-7.4-.38-8.95-.66-.9-.17-2.39-.55-3.48-.84-.04-.04-.08-.09-.13-.13,1.41-.34,9.45-.33,8.92-1.05-.58-.79-7.68-.24-9.23-.52-.48-.09-1-.23-1.5-.39-.07-.07-.13-.15-.2-.23.83-.37,9.23-.34,8.68-1.09-.58-.78-5.72-.29-7.27-.58-.73-.14-1.84-.41-2.81-.66,1.7-.3,7.69-.4,7.19-1.07-.58-.79-6.18-.15-7.73-.43-.71-.13-1.46-.35-2.08-.54-.05-.05-.09-.1-.13-.15,1.47-.32,7.84-.4,7.32-1.1-.58-.78-6.19-.14-7.73-.43-.43-.08-.86-.19-1.28-.31-.06-.07-.6-.33-.66-.4,1.47-.32,7.84-.48,7.33-1.17-.49-.66-6.18-.22-7.67-.5-.42-.08-1-.31-1.42-.43-.39-.42-.22-.38-.6-.79.9-.32,8.09.04,7.54-.7-.58-.78-6.19-.61-7.73-.9-.78-.14-1.39-.45-1.8-.71,1.75-.2,7.22-.05,6.73-.7-.58-.78-5.81-.52-7.36-.81-.48-.09-.86-.22-1.2-.35-.14-.17-.29-.32-.43-.48,2.03-.16,6.83-.06,6.38-.68-.58-.79-5.81-.52-7.36-.81-.17-.03-.33-.07-.48-.11-.18-.19-.36-.4-.54-.59,1.18-.27,5.62-.22,5.11-.9-.58-.79-3.95-.34-5.5-.63-.58-.11-1.06-.27-1.42-.44-.03-.04-.06-.07-.09-.1,1.3-.21,4.96-.13,4.48-.77-.58-.79-3.48-.45-5.03-.73-.43-.08-.8-.19-1.11-.32-.04-.04-.08-.09-.12-.13.51-.25,3.72.32,3.18-.4-.57-.78-2.18-.63-3.73-.92-.33-.06-.59-.14-.85-.23-.16-.17-.31-.34-.46-.5.75-.09,2.4.12,1.95-.49-.58-.79-.59-.36-2.14-.64-.45-.08-.83-.2-1.16-.33-2.53-2.78-4.13-4.53-4.13-4.53,0,0,22.77,10.29,46.73,32.9,13.53,12.75,38.38,41.75,38.38,41.75Z"/></svg>