<svg width="225" height="65" viewBox="0 0 225 65" fill="none" xmlns="http://www.w3.org/2000/svg">
<g clip-path="url(#clip0_15652_13978)">
<path d="M71.6629 64.3933C71.0267 64.3933 70.5198 63.9239 69.7522 63.2126C69.0763 62.5868 68.2335 61.8066 67.3365 61.4019C66.1997 60.8909 65.3486 60.8158 64.9418 60.8158C64.7165 60.8158 64.5934 60.8387 64.5934 60.8387L63.9718 60.9535L63.6047 60.4319L58.7171 53.1205C57.8931 53.3854 56.5456 53.7609 55.5777 53.7609C55.2418 53.7609 54.9602 53.7191 54.7161 53.6294C54.1592 53.4313 53.9464 53.0683 53.8671 52.8013C53.7044 52.2506 53.9839 51.8209 54.1925 51.5393C53.8358 51.3995 52.7344 51.1367 49.4761 51.1367C47.5653 51.1367 45.8631 51.2305 45.8464 51.2326L45.4042 51.2576L44.9786 50.8008C44.939 50.7549 44.9056 50.7194 44.8722 50.6798L43.7499 49.3927C43.7499 49.3927 43.7207 49.3614 43.6957 49.3302L42.9677 48.4958C42.9406 48.4665 42.8822 48.3998 42.8237 48.3351L42.4232 47.8783C42.2939 47.726 42.1562 47.5737 42.0165 47.4131L40.3622 45.5253C40.2934 45.4502 40.2392 45.3876 40.1849 45.3229L39.0773 44.065C38.9417 43.9128 38.8228 43.773 38.7018 43.6353L38.0509 42.899C37.9466 42.7801 37.834 42.6549 37.7234 42.5256L36.4343 41.0612C36.3341 40.9527 36.2173 40.8192 36.1005 40.6857L33.8163 38.1053C28.8662 42.1522 23.2694 46.7059 17.5516 51.339L17.61 51.5643L17.1052 51.9523C17.1052 51.9523 14.8774 53.6691 12.2469 55.6925L11.9319 55.9887C11.8985 56.02 11.8589 56.0617 11.8234 56.1055C11.9361 56.4998 12.0529 57.2779 11.256 57.9934C10.5218 58.6484 9.89387 58.7089 9.43703 58.7548C8.9635 58.8007 8.55464 58.8403 7.55127 60.0398C7.53041 60.0648 5.69471 62.2071 4.28874 62.6285C3.82773 62.7662 3.41052 62.8788 2.9516 62.8788C2.21106 62.8788 1.57691 62.5764 1.01577 61.9568C-0.020978 60.8158 -0.406891 59.9021 0.521387 58.3543C1.05124 57.4802 2.56568 56.3851 4.20321 55.2461C4.56409 54.9937 4.90828 54.7559 5.03136 54.6516C5.16695 54.5389 5.25665 54.4138 5.36721 54.2552C5.5925 53.9361 5.90331 53.4959 6.59796 53.2164C6.7711 53.1455 6.96092 53.1079 7.1591 53.1017L13.5903 47.3818L14.0054 47.4215C17.5829 44.3592 23.5761 39.2276 29.9447 33.758L28.5241 32.1706C28.4678 32.1122 28.3989 32.035 28.3343 31.9599L26.0271 29.4087C25.9416 29.3127 25.8665 29.2314 25.7893 29.1479C25.7184 29.0645 25.6662 29.0103 25.6162 28.956L24.1101 27.3122C23.9661 27.1537 23.8472 27.0265 23.7346 26.9034C16.5796 19.1726 1.15554 2.40935 0.999085 2.24247L0.771709 1.99632L0.642376 0.194L1.47678 0.0312903C1.53728 0.0187742 1.67078 0 1.88773 0C3.49605 0 10.1859 1.12019 28.6931 15.5262C28.8787 15.6702 29.0706 15.8204 29.2625 15.9747L30.0385 16.6068C30.2033 16.7424 30.3702 16.8801 30.535 17.0219L30.5934 17.072C30.8104 17.2535 31.0002 17.4162 31.19 17.581C31.2171 17.6039 31.2443 17.6269 31.2714 17.6498L31.3256 17.6957C31.5175 17.8626 31.7115 18.0295 31.9076 18.2026L32.0223 18.3048C32.208 18.4675 32.3937 18.6323 32.5814 18.8034C32.8296 19.0266 33.0445 19.2206 33.2656 19.4208L34.8197 20.8602C34.9741 21.002 35.1389 21.1585 35.3057 21.317L35.4956 21.4964C35.5206 21.5194 35.5394 21.5381 35.5581 21.5548C36.0317 22.0054 36.5135 22.4685 37.0038 22.942L36.3905 23.6826L37.0559 22.9942L39.3756 25.2825L38.7477 26.0085L39.4215 25.3263L39.5737 25.4786L40.7106 24.4982C40.7002 24.4669 40.6939 24.4377 40.6877 24.4085C40.5437 23.8348 40.792 23.2841 41.3343 22.9879C41.5346 22.8836 41.7494 22.8336 41.9747 22.8336C42.0999 22.8336 42.3043 22.8502 42.5192 22.9337C47.3379 18.7637 51.0739 15.5033 53.4061 13.434C53.3414 12.9354 53.5876 12.4556 54.0778 12.199C54.3323 12.0676 54.6264 12.0322 54.9122 12.0822C55.9928 11.1039 56.1889 10.8869 56.2202 10.8494C56.41 10.6199 56.6186 10.4447 56.8439 10.3258C56.6102 10.0337 56.2806 9.66452 55.9302 9.36205C55.7466 10.0358 55.1771 10.4635 54.4679 10.4635C53.9568 10.4635 53.427 10.2403 53.0515 9.86478C52.384 9.19725 52.2484 7.94147 52.5467 7.22805C52.5571 7.19885 52.5675 7.16964 52.5759 7.14044C52.772 6.53967 53.1787 5.8492 54.5993 5.8492C57.0963 5.85754 58.3583 7.34904 59.0363 8.15007C59.1218 8.25229 59.2011 8.34616 59.2699 8.42126C59.3054 8.4588 59.3554 8.51304 59.4159 8.57771C61.1995 7.06952 64.1804 4.57464 65.2797 3.79864C65.6385 3.54414 66.1496 3.21664 66.5981 2.93711C66.7775 2.54494 67.0904 2.26124 67.1801 2.18406C67.4596 1.94417 67.7663 1.87324 69.5394 1.54157C70.0984 1.43727 70.9078 1.28707 71.2499 1.19737C71.3605 1.01172 71.5461 0.700902 71.9779 0.377569C72.2095 0.202344 72.489 0.110559 72.7852 0.110559C74.0139 0.110559 75.0173 1.73557 75.3114 2.522C75.81 3.85288 75.3761 5.37567 75.3719 5.39236C75.3635 5.41948 75.3531 5.44451 75.3448 5.47163C75.6931 6.12455 75.8934 6.58347 75.9393 6.83797C76.0665 7.43665 76.4212 9.10338 74.8233 11.5086C73.2754 13.8386 68.9574 16.8821 68.2982 17.0949C67.1259 17.4704 65.7387 17.6039 64.8312 17.6039C63.905 17.6039 63.5713 17.4746 63.4628 17.4329C63.056 17.2806 62.4511 16.7591 60.9721 15.3865C60.6592 15.7077 60.0689 16.2647 58.8715 17.314C58.8339 17.752 58.5815 18.0691 58.3041 18.236C58.1101 18.3528 57.8806 18.4049 57.6407 18.3841C55.0916 20.5765 51.1991 23.8348 46.0571 28.082C45.9757 28.4345 45.7609 28.7432 45.4396 28.9414C45.254 29.052 45.0454 29.1125 44.8159 29.1083L43.873 29.8843C50.3522 36.6388 58.1914 45.3438 65.0544 53.4062H65.0586L67.1425 55.8761C67.4137 56.1973 67.6724 56.5081 67.9227 56.8106L69.7417 59.0197C69.7605 59.0406 69.7834 59.0698 69.8064 59.1011C69.9816 59.3159 70.1777 59.5579 70.3634 59.7895L70.4113 59.852C70.4802 59.9355 70.5636 60.0398 70.6429 60.1399L70.6658 60.1691C70.7555 60.2797 70.8411 60.3881 70.9245 60.4945L71.6296 61.3978C71.6296 61.3978 71.6504 61.4207 71.6671 61.4478L71.713 61.5042C71.8069 61.6293 71.8945 61.7441 71.9759 61.8525L72.6309 62.8204L72.7769 62.9665V63.9573L72.3492 64.1889C72.1532 64.3307 71.9174 64.4079 71.6692 64.4079L71.6629 64.3933ZM7.24879 55.0292C7.13615 55.0876 7.07983 55.1627 6.93798 55.3629C6.79196 55.5694 6.5917 55.8531 6.26002 56.1285C6.07228 56.2849 5.74895 56.5081 5.30254 56.8211C4.40138 57.4469 2.52814 58.7506 2.16517 59.3451C1.91902 59.7554 2.01011 60.1969 2.43844 60.6698C2.70545 60.9639 2.85564 60.9639 2.95577 60.9639C3.15603 60.9639 3.43138 60.8867 3.74428 60.7928C4.29917 60.6259 5.57789 59.4119 6.08897 58.8069C7.47826 57.1486 8.37942 56.9337 9.25763 56.8482C9.59765 56.8148 9.71447 56.8044 9.97105 56.5812C9.97105 56.5749 9.96688 56.5686 9.96479 56.5645C9.91473 56.4184 9.83546 56.1848 9.85215 55.9095L9.09075 55.7113L10.6407 54.5202C12.6954 52.939 14.5749 51.4934 15.4406 50.8258L15.3905 50.6339L15.8703 50.2438C22.0282 45.252 28.0631 40.3415 33.324 36.0401L34.0354 35.4581L34.9282 36.4636H35.4559V37.0602L36.3467 38.0636L37.5399 39.4132C37.6588 39.5488 37.7672 39.674 37.8778 39.795L40.1495 42.3712C40.2725 42.5172 40.3894 42.6486 40.5062 42.778L43.437 46.1198C43.606 46.3117 43.7479 46.4723 43.8834 46.6308L44.2464 47.0439C44.3173 47.1252 44.3653 47.1774 44.4112 47.2275L46.2135 49.2926C46.8623 49.2634 48.1076 49.2175 49.4802 49.2175C53.767 49.2175 54.7495 49.6785 55.0749 49.8308C55.319 49.9455 56.0637 50.2939 56.2514 51.0616C56.3161 51.3244 56.2994 51.5643 56.2431 51.7771C57.1568 51.6248 58.3187 51.243 58.7776 51.0741L59.4869 50.8154L64.8896 58.8966C65.4925 58.8883 66.4312 58.9843 67.6202 59.4411L67.6036 59.4181C67.591 59.4056 67.5743 59.3869 67.5597 59.366L66.4187 57.9871C66.1642 57.6826 65.9035 57.3676 65.6302 57.0443L63.9927 55.1043L63.565 54.9979V54.5994C56.4767 46.2741 48.3475 37.2667 41.7703 30.4517L41.0485 29.7049L44.503 26.8637C50.0789 22.2599 54.2113 18.7971 56.7855 16.5734L57.2235 16.1917C59.2991 14.3894 59.6746 13.9638 59.7414 13.8783L59.8519 13.7323L60.776 13.1711L60.3922 12.6371L61.0514 12.0634C61.3831 11.7756 61.9609 11.2687 62.5324 10.7451C63.0686 10.2528 63.7444 9.78343 64.3994 9.32867C64.8855 8.99074 65.3444 8.67158 65.6719 8.39414C66.0349 8.08123 66.2268 7.85177 66.4479 7.58685C66.6628 7.32818 66.9068 7.03405 67.3157 6.65648C67.8956 6.11621 69.118 5.34646 70.0421 4.79576L71.0059 4.2221L71.3062 4.97724C71.5607 5.05025 71.9738 5.16289 72.3638 5.26094C72.5578 5.23591 72.8207 5.23591 73.0501 5.28388L72.6538 4.58715L73.6009 4.42444C73.6426 4.06774 73.6572 3.56501 73.5132 3.18118C73.3693 2.79318 73.096 2.41352 72.8833 2.19032C72.7852 2.35511 72.635 2.59292 72.3367 2.79735C72.0363 3.00178 71.5774 3.10399 69.8898 3.4169C69.4434 3.50034 68.8239 3.61507 68.4651 3.69642L68.5381 3.98012L67.9352 4.35143C67.5431 4.59133 66.8192 5.04399 66.3853 5.35272C65.1441 6.22468 61.1369 9.61654 59.9374 10.6345L59.2157 11.2457L58.9403 10.9307L57.9828 11.9946L57.72 12.0301C57.72 12.0301 57.7054 12.0488 57.695 12.0593C57.6115 12.1636 57.4154 12.3972 55.8092 13.8407L55.1813 14.404C55.1584 14.4248 55.1333 14.4457 55.1083 14.4686L55.004 14.5625C52.6072 16.6965 48.5228 20.2594 43.1721 24.8883L42.4587 25.5057L39.4632 28.0924L38.0718 26.6864L38.6955 25.9563L38.0196 26.6364L36.501 25.1323C36.501 25.1323 36.4635 25.0948 36.4322 25.0635L35.7167 24.3647C35.6791 24.3271 35.6562 24.3042 35.6332 24.2813C35.1743 23.8411 34.6945 23.378 34.2189 22.9274L33.9832 22.7042C33.8205 22.5519 33.662 22.3997 33.4992 22.2516L31.9681 20.8351C31.7533 20.6391 31.5405 20.4472 31.3319 20.2594L31.2735 20.2052C31.1108 20.0571 30.9314 19.9006 30.752 19.7421L30.6205 19.6253C30.4411 19.4688 30.2555 19.3082 30.0698 19.1476L30.6435 18.3757L30.0177 19.1017L29.9447 19.0412C29.7569 18.8785 29.5713 18.7178 29.3856 18.5635L29.3022 18.4926C29.127 18.3424 28.9705 18.213 28.8141 18.0837L28.1173 17.5142L28.6597 16.7236L28.0589 17.4704C27.8753 17.3223 27.6939 17.1804 27.5145 17.0428C13.5173 6.14332 6.53955 3.09148 3.60452 2.24247C7.3823 6.34567 19.1579 19.135 25.1447 25.6017C25.2636 25.731 25.3867 25.8645 25.5098 26.0001C25.5244 26.0147 25.5661 26.0606 25.6078 26.1065L27.0388 27.6689C27.0952 27.7294 27.1578 27.7983 27.2182 27.8671C27.2808 27.9318 27.3664 28.0257 27.4498 28.1195L29.7694 30.6853C29.8383 30.7646 29.8988 30.8313 29.9572 30.896L32.6836 33.9395L31.941 34.5778C25.0801 40.4729 18.5634 46.053 14.9024 49.1841L14.1827 49.7995L14.0012 49.5909L7.7411 55.1606L7.25088 55.0312L7.24879 55.0292ZM64.5559 14.8107C64.5559 14.8107 64.6101 14.8462 64.7916 14.8462C65.1233 14.8462 65.5655 14.7335 65.9952 14.623C66.4688 14.502 66.9173 14.3873 67.3386 14.3852C68.3378 14.0222 72.6997 10.3174 72.8082 8.39205C72.8541 7.54513 72.6976 7.20719 72.6371 7.15504L72.3326 7.29272L72.1031 7.17799C71.6546 7.06534 70.9224 6.8776 70.5261 6.74618C69.6082 7.30941 68.9115 7.78919 68.6153 8.06455C68.2961 8.36076 68.1125 8.58397 67.9165 8.8176C67.664 9.12216 67.4033 9.43506 66.9131 9.85644C66.5126 10.1985 66.014 10.5448 65.4883 10.9099C64.8855 11.3271 64.2638 11.7589 63.8258 12.1636C63.4941 12.466 63.1603 12.7643 62.8725 13.0209C63.0727 13.3755 63.9092 14.3497 64.558 14.8107H64.5559Z" fill="white"/>
<path d="M74.9921 7.00337C74.9296 6.66544 74.1577 5.30744 74.1577 5.30744C74.1577 5.30744 74.4018 5.26363 74.4456 5.1197C74.4873 4.97368 74.7585 3.78882 74.4081 2.8522C74.0597 1.91974 73.0626 0.75366 72.5494 1.13957C72.0404 1.52132 72.1009 1.79876 71.7901 2.01153C71.4668 2.23265 68.0186 2.71869 67.7954 2.9106C67.6056 3.06914 67.3844 3.36536 67.4303 3.54058C66.9568 3.83262 66.2622 4.2686 65.8283 4.57733C64.5537 5.47641 60.5152 8.89122 59.3157 9.91128C58.9674 9.51077 58.6878 9.19786 58.571 9.0727C57.9807 8.44481 56.9731 6.81146 54.6055 6.80311C53.5312 6.80103 53.5729 7.24118 53.4269 7.59163C53.283 7.93999 53.3351 8.79317 53.7252 9.18117C54.1195 9.57543 54.8642 9.66304 55.0039 9.10191C55.1374 8.53659 54.618 8.25498 54.618 8.25498C54.618 8.25498 54.2947 8.08184 54.5867 7.88784C54.8704 7.7001 55.1604 7.63543 56.1033 8.2821C57.0503 8.92877 58.0245 10.2138 58.0641 10.4557C58.0641 10.462 58.0704 10.4682 58.0704 10.4766L57.5113 11.0982C57.3278 11.1233 57.1442 11.2317 56.9585 11.457C56.3348 12.2101 48.5206 19.0188 39.5215 26.7851C35.2326 22.4608 31.2442 18.7226 28.1068 16.282C7.07974 -0.0807463 1.66026 0.972692 1.66026 0.972692L1.70616 1.59224C1.70616 1.59224 17.2011 18.4327 24.4438 26.2531C26.3775 28.3433 28.8014 31.0301 31.3193 33.8483C24.4604 39.7413 17.9416 45.3235 14.2807 48.4546L14.239 48.4067L13.9219 48.3775L7.48651 54.1015C7.31337 54.0556 7.12772 54.041 6.96084 54.1098C6.2349 54.4019 6.22656 54.9129 5.64665 55.3948C5.05839 55.8809 1.97943 57.8083 1.34528 58.8514C0.727814 59.8818 0.840459 60.3387 1.7291 61.317C2.4759 62.1389 3.15803 61.97 4.01747 61.7155C4.94992 61.4359 6.44976 59.8672 6.82107 59.4292C8.90501 56.9426 9.36602 58.4049 10.6218 57.2868C11.3164 56.6631 10.6886 56.1959 10.8283 55.8934C10.9702 55.5888 11.281 55.2968 11.281 55.2968L11.2226 55.2822C14.0429 53.1148 16.5252 51.1998 16.5252 51.1998L16.471 50.9912C20.2091 47.9603 26.8844 42.5429 33.9268 36.7855C39.995 43.6255 45.79 50.2778 45.79 50.2778C45.79 50.2778 52.8991 49.8794 54.6597 50.7034C56.4203 51.5294 54.0193 52.3701 55.0352 52.7331C56.0553 53.1002 59.0988 51.98 59.0988 51.98L64.3952 59.9027C64.3952 59.9027 65.6885 59.6169 67.7266 60.5327C69.7604 61.4505 71.3458 63.8453 71.8026 63.378C72.1343 63.0443 56.4182 44.2638 42.4524 29.7931C51.6892 22.1938 59.7371 15.4601 60.4964 14.4651L61.0325 14.1396C61.8002 14.8405 63.4064 16.3863 63.7986 16.5344C64.2992 16.7263 66.4165 16.6825 67.9936 16.1777C68.3607 16.0588 72.5452 13.1842 74.0159 10.9752C75.4845 8.76188 75.0485 7.33922 74.988 7.00546L74.9921 7.00337ZM73.7635 8.4469C73.6195 11.0315 68.2793 15.385 67.4032 15.3454C66.5333 15.3099 64.8583 16.2006 64.0009 15.5915C63.1394 14.9803 61.9587 13.5827 61.9253 13.2218C61.9191 13.1592 61.8273 13.0048 61.6771 12.7921C62.0129 12.5 62.5991 11.9869 63.1749 11.457C64.0552 10.6476 65.4736 9.82158 66.2872 9.12902C67.0924 8.43647 67.1842 8.08393 67.9602 7.36425C68.4921 6.86778 69.7729 6.07301 70.526 5.62451C70.5489 5.68084 70.5948 5.74759 70.7075 5.79348C70.9745 5.90613 72.3346 6.24823 72.3346 6.24823C72.3346 6.24823 73.9137 5.71004 73.7635 8.44481V8.4469Z" fill="#002B5C"/>
<path d="M60.1108 10.2368L62.1322 8.45117C62.1322 8.45117 62.6746 8.50958 63.1752 9.1187C63.6028 9.6402 63.7155 10.1659 63.7155 10.1659L61.4417 12.1121C61.4417 12.1121 60.9327 11.2631 60.6511 10.9961C60.2589 10.6102 60.1108 10.2389 60.1108 10.2389V10.2368Z" fill="#C5C19D"/>
<path d="M62.8286 7.98671L64.5684 6.47852C64.5684 6.47852 64.9438 6.56821 65.5154 7.1377C65.9973 7.62165 66.2017 8.29127 66.2017 8.29127L64.293 9.76608C64.293 9.76608 63.857 8.85032 63.5691 8.57705C63.1478 8.16819 62.8286 7.98462 62.8286 7.98462V7.98671Z" fill="#C5C19D"/>
<path d="M64.9897 6.10965L67.1154 4.48047C67.1154 4.48047 67.2531 4.69116 67.8267 5.26064C68.3107 5.74251 68.5464 6.3558 68.5464 6.3558L66.669 7.98498C66.669 7.98498 66.379 7.26739 66.0953 6.98995C65.6698 6.58317 65.7866 6.62698 64.9897 6.10756V6.10965Z" fill="#C5C19D"/>
<path d="M67.4243 4.11764L67.8499 3.86523C67.8499 3.86523 69.8107 3.94867 70.5221 4.33042C71.2522 4.72259 69.7252 5.68841 69.7252 5.68841L68.9388 6.08059C68.9388 6.08059 68.6905 5.35882 68.4027 5.0793C67.9813 4.67878 67.4243 4.11764 67.4243 4.11764Z" fill="#C5C19D"/>
<path d="M15.639 50.9757L15.5973 50.8172L14.2706 49.2568L14.1183 49.2109L4.93564 57.4403C4.93564 57.4403 2.36775 59.4637 2.18209 59.8183C1.96306 60.246 2.74323 60.951 3.15418 60.7112C3.42328 60.5547 15.639 50.9736 15.639 50.9736V50.9757Z" fill="#FFC425"/>
<path d="M40.1557 28.9128C40.3768 29.0943 41.2967 29.6387 41.2967 29.6387L46.468 25.5209C46.468 25.5209 46.4367 25.1246 45.7254 24.2651C45.2497 23.6894 44.9181 23.5517 44.8388 23.5434C44.7679 23.5225 44.7846 23.4724 44.5718 23.5142C44.3528 23.5517 39.8198 27.4484 39.678 27.6653C39.5361 27.8823 39.9304 28.7209 40.1557 28.9128Z" fill="#FFC425"/>
<path d="M52.7681 16.4995C52.7368 16.6289 53.2124 16.8708 53.7193 17.4487C54.2262 18.0223 54.4035 18.5772 54.5829 18.6106C54.7748 18.6419 59.46 14.4573 59.46 14.4573C59.46 14.4573 59.2368 13.7877 58.8071 13.2725C58.3753 12.753 57.7683 12.1773 57.5826 12.1856C57.399 12.1877 52.8077 16.366 52.7701 16.5016L52.7681 16.4995Z" fill="#FFC425"/>
<path d="M45.277 27.0408C45.3729 27.216 45.0892 27.5352 45.0892 27.5352C45.0892 27.5352 45.2498 27.9232 44.9349 28.1151C44.7534 28.2277 44.2527 27.9252 44.2527 27.9252C44.2527 27.9252 43.9419 27.8814 43.8126 27.8084C43.6874 27.7354 43.2347 27.1346 43.0908 26.901C42.9448 26.6716 42.7529 26.1313 42.7529 26.1313C42.7529 26.1313 42.2814 25.7808 42.1792 25.5722C42.077 25.3636 42.1667 25.0319 42.1667 25.0319C42.1667 25.0319 41.6619 24.3894 41.6202 24.1954C41.5701 23.9994 41.664 23.8971 41.7891 23.8283C41.9143 23.7636 42.1417 23.7866 42.2522 23.87C42.3711 23.9535 42.8467 24.5042 42.8467 24.5042C42.8467 24.5042 43.2577 24.5855 43.4162 24.7232C43.5727 24.8609 44.0295 25.8267 44.1714 25.9748C44.3174 26.1208 44.7325 26.4609 44.7325 26.4609C44.7325 26.4609 45.0767 26.6862 45.2811 27.0408H45.277Z" fill="#002B5C"/>
<path d="M57.8932 16.2429C57.9892 16.414 57.7368 16.6998 57.7368 16.6998C57.7368 16.6998 58.081 17.238 57.8014 17.4069C57.6366 17.5071 56.9775 17.0377 56.9775 17.0377C56.9775 17.0377 56.6875 16.9814 56.5644 16.9042C56.4434 16.8312 55.9991 16.2408 55.8552 16.0156C55.7092 15.7903 55.5068 15.2667 55.5068 15.2667C55.5068 15.2667 55.0521 14.9162 54.9457 14.7118C54.8414 14.5115 54.9144 14.2028 54.9144 14.2028C54.9144 14.2028 54.4137 13.5728 54.3679 13.3851C54.3115 13.1953 54.3971 13.1035 54.5139 13.043C54.6265 12.9846 54.8351 13.0179 54.9415 13.1035C55.0562 13.1869 55.5193 13.7272 55.5193 13.7272C55.5193 13.7272 55.9052 13.8231 56.0554 13.9608C56.2077 14.0964 56.6771 15.0351 56.8127 15.1791C56.9503 15.3251 57.355 15.663 57.355 15.663C57.355 15.663 57.6825 15.8883 57.8911 16.2388L57.8932 16.2429Z" fill="#002B5C"/>
<path d="M1.66064 0.972689C1.66064 0.972689 7.08012 -0.0807494 28.1051 16.2841C41.9208 27.0375 72.2703 62.9107 71.8093 63.3759C71.3503 63.8432 69.7671 61.4484 67.7332 60.5306C65.6951 59.6148 64.4018 59.9006 64.4018 59.9006L59.1054 51.9779C59.1054 51.9779 56.0598 53.0981 55.0418 52.731C54.0239 52.368 56.427 51.5273 54.6664 50.7013C52.9058 49.8773 45.7966 50.2757 45.7966 50.2757C45.7966 50.2757 31.6868 34.0757 24.4462 26.2531C17.2015 18.4327 1.70654 1.59224 1.70654 1.59224L1.66064 0.972689Z" fill="#002B5C"/>
<path d="M34.1294 23.8143C18.8785 9.42496 4.39111 2.87695 4.39111 2.87695C4.39111 2.87695 5.40492 3.99089 7.01741 5.75774C7.22601 5.8391 7.4659 5.91837 7.75586 5.97052C8.74255 6.14992 8.75089 5.87873 9.11803 6.37938C9.40382 6.76738 8.35455 6.63596 7.87476 6.69228C7.97072 6.7945 8.06459 6.8988 8.16472 7.00727C8.32952 7.06151 8.50057 7.11574 8.70917 7.1512C9.69377 7.33477 10.7159 7.23464 11.081 7.7332C11.421 8.19213 9.38087 7.82499 9.05545 7.98561C9.08257 8.01064 9.10969 8.04193 9.13681 8.06905C9.33289 8.15041 9.56444 8.21716 9.83979 8.27348C10.8286 8.45079 12.6726 8.23385 13.0418 8.73658C13.3464 9.14335 11.0184 9.09329 10.1923 9.22471C10.2069 9.24557 10.2299 9.26643 10.2487 9.28729C10.476 9.39576 10.7785 9.50006 11.1498 9.5689C12.1365 9.75247 14.2788 9.46668 14.646 9.96733C14.9672 10.4012 12.1428 10.3678 11.3918 10.541C11.5086 10.662 11.6213 10.7913 11.7402 10.9144C11.834 10.9415 11.9362 10.9686 12.0447 10.9853C13.0335 11.171 16.3607 11.002 16.7299 11.5026C17.0178 11.899 13.9576 11.8364 12.6684 11.9344C12.7602 12.0387 12.8541 12.1347 12.9459 12.2411C13.1607 12.3287 13.4048 12.4101 13.7094 12.4664C14.696 12.6458 18.0295 12.4789 18.3966 12.9775C18.7054 13.3947 15.2301 13.3029 14.1161 13.4259C14.379 13.597 14.7628 13.7889 15.2614 13.8807C16.2501 14.0643 19.813 13.9558 20.1823 14.4523C20.5327 14.9195 15.9581 14.6942 15.3844 14.8987C15.6264 15.1636 15.5221 15.1365 15.7662 15.4056C16.0311 15.4786 16.4024 15.6267 16.6694 15.6747C17.6206 15.8499 21.2399 15.5704 21.5549 15.9938C21.8803 16.434 17.8251 16.5341 16.8884 16.7406C16.9281 16.7844 17.2723 16.9534 17.3077 16.9951C17.5768 17.0681 17.8522 17.1391 18.1234 17.1912C19.1059 17.3727 22.6709 16.968 23.0422 17.4645C23.3718 17.9088 19.3207 17.963 18.38 18.1654C18.4092 18.1988 18.4342 18.228 18.4655 18.2613C18.8597 18.3844 19.3353 18.5242 19.788 18.6055C20.7789 18.7891 24.3418 18.3802 24.711 18.883C25.0281 19.3127 21.219 19.3753 20.1364 19.5651C20.7559 19.7257 21.4631 19.8968 21.9283 19.9823C22.9108 20.1659 26.1837 19.8551 26.5509 20.3536C26.9013 20.8313 21.557 20.8084 21.0271 21.0462C21.073 21.0962 21.1126 21.1442 21.1564 21.1901C21.4693 21.2923 21.8073 21.3841 22.1118 21.4404C23.0944 21.624 27.6127 21.2735 27.9819 21.7742C28.3198 22.2289 23.2028 22.2227 22.3058 22.4396C22.333 22.4667 22.3601 22.4939 22.3872 22.521C23.0798 22.7087 24.031 22.9486 24.6025 23.055C25.5892 23.2365 29.9302 22.982 30.2974 23.4785C30.6332 23.9311 24.8988 23.8873 23.8307 24.0876C23.8599 24.1147 23.885 24.146 23.91 24.171C24.4628 24.3421 25.1929 24.5507 25.7394 24.6487C26.7219 24.8344 31.7764 24.5715 32.1477 25.0701C32.4689 25.5082 26.7324 25.529 25.3347 25.7251C25.4724 25.8711 25.6163 26.0297 25.7624 26.1861C26.409 26.4218 27.4249 26.7306 28.0612 26.6304C29.0103 26.4844 33.683 26.5783 34.048 27.0789C34.4027 27.5545 27.7816 27.4815 27.1642 27.7214C27.2956 27.8612 27.4208 28.001 27.5522 28.1407C28.2385 28.3222 29.1626 28.56 29.7237 28.6622C30.7146 28.8437 35.3518 28.6455 35.7231 29.1462C36.0736 29.628 29.5506 29.603 29.1083 29.8596C29.1125 29.8596 29.1188 29.8638 29.1188 29.8659C29.5443 29.9848 31.2444 30.452 32.108 30.6106C33.0926 30.7921 37.4336 30.596 37.8029 31.0966C38.1721 31.5952 30.7646 31.5701 30.773 31.8559C30.7792 31.9268 31.1526 32.0937 30.9712 31.9248C31.0567 32.0165 30.8835 31.8225 30.9712 31.9164C31.6449 32.1 32.8986 32.4317 33.6016 32.5568C34.5862 32.7404 39.3382 32.4233 39.7053 32.9219C40.0161 33.3349 34.9513 33.4413 33.1406 33.6249C33.829 33.8126 34.7594 34.0483 35.3268 34.1526C36.3093 34.3362 41.2427 34.1359 41.614 34.6324C41.9832 35.1351 33.8999 35.083 33.9124 35.3709C33.9208 35.4647 34.4611 35.6942 34.169 35.4063C34.3526 35.6108 34.0981 35.3917 34.2838 35.5941C34.9075 35.7651 36.303 36.1385 37.054 36.2783C38.0407 36.4618 43.0346 36.2616 43.3997 36.7601C43.7543 37.2378 36.5659 37.1982 36.0026 37.4485C36.5408 37.5966 38.0949 38.0159 38.9001 38.1661C39.8868 38.3455 45.0831 38.5562 45.4544 39.0548C45.8194 39.5533 37.54 39.0923 37.5567 39.3781C37.5588 39.4678 38.0261 39.7452 37.7674 39.497C37.9489 39.7014 37.7319 39.4615 37.9113 39.666C38.5997 39.885 39.8597 40.2793 40.5752 40.4482C41.5848 40.6798 46.9209 41.1304 47.2755 41.6644C47.603 42.1421 40.8651 41.4892 39.5948 41.583C39.9118 41.9439 40.2268 42.2964 40.523 42.6406C40.7942 42.9577 48.767 43.256 50.2522 44.6161C47.9451 44.7433 41.5368 44.0529 41.7892 44.3407C42.2357 44.8622 42.6612 45.3462 43.0492 45.7989C43.3246 46.1118 52.2214 46.7397 52.9307 47.5699C53.1268 47.7973 44.2049 47.1277 44.378 47.3258C45.3334 48.4231 45.8862 49.0656 45.8862 49.0656C45.8862 49.0656 49.762 48.8653 51.6102 49.0468C53.4626 49.222 58.5588 50.3735 58.5588 50.3735C58.5588 50.3735 42.7446 31.9206 34.1356 23.8081L34.1294 23.8143Z" fill="#C5C19D"/>
<path d="M91.916 13.043V13.7001C90.9106 13.7334 90.2409 13.8899 89.903 14.1673C89.5672 14.4448 89.3982 15.0768 89.3982 16.0677V24.7518C89.3982 26.0681 89.5526 27.086 89.8675 27.8078C90.4329 29.1429 91.5176 29.8104 93.1176 29.8104C95.1097 29.8104 96.4552 29.0719 97.1561 27.595C97.5441 26.7836 97.7381 25.6467 97.7381 24.1865V16.2596C97.7381 15.3292 97.567 14.6909 97.2249 14.3426C96.8828 13.9921 96.2153 13.7793 95.2203 13.7022V13.0451H100.913V13.7022C100.085 13.8628 99.5404 14.0589 99.2755 14.2904C99.0085 14.524 98.8771 15.056 98.8771 15.8925V24.1802C98.8771 26.381 98.3472 28.0832 97.2833 29.2805C96.2216 30.4779 94.5507 31.0766 92.2727 31.0766C89.2918 31.0766 87.2579 30.1859 86.1607 28.4044C85.5787 27.4574 85.2867 26.237 85.2867 24.7434V16.0698C85.2867 15.0956 85.1594 14.4844 84.9028 14.232C84.6462 13.9796 84.0663 13.8044 83.1631 13.7022V13.0451H91.9202L91.916 13.043Z" fill="white"/>
<path d="M102.006 27.1853C102.434 26.7577 102.949 26.5449 103.556 26.5449C104.163 26.5449 104.681 26.7577 105.106 27.1853C105.532 27.6109 105.747 28.1261 105.747 28.7332C105.747 29.3402 105.534 29.8575 105.106 30.2831C104.681 30.7086 104.163 30.9214 103.556 30.9214C102.949 30.9214 102.434 30.7086 102.006 30.2831C101.581 29.8575 101.368 29.3402 101.368 28.7332C101.368 28.1261 101.581 27.6088 102.006 27.1853Z" fill="white"/>
<path d="M110.244 24.5093H110.991C111.404 26.4451 112.069 27.8531 112.989 28.7314C113.907 29.6117 114.963 30.0497 116.15 30.0497C117.337 30.0497 118.127 29.7493 118.611 29.1465C119.097 28.5415 119.343 27.9053 119.343 27.2399C119.343 26.4639 119.089 25.8318 118.582 25.3395C118.246 25.0182 117.564 24.601 116.54 24.0858L114.888 23.2493C113.25 22.4212 112.094 21.6013 111.421 20.792C110.747 19.9826 110.411 18.9813 110.411 17.7902C110.411 16.524 110.855 15.3433 111.748 14.2461C112.641 13.1488 114.009 12.6002 115.849 12.6002C116.786 12.6002 117.693 12.742 118.567 13.0299C119.443 13.3157 119.942 13.4596 120.069 13.4596C120.351 13.4596 120.543 13.3762 120.651 13.2135C120.762 13.0487 120.847 12.8317 120.914 12.5605H121.684V18.2032H120.962C120.624 16.8953 120.028 15.7709 119.174 14.8239C118.321 13.8789 117.284 13.4054 116.064 13.4054C115.207 13.4054 114.529 13.6474 114.03 14.123C113.532 14.5986 113.283 15.1785 113.283 15.8627C113.283 16.6825 113.515 17.2937 113.984 17.7005C114.441 18.1156 115.47 18.7206 117.072 19.5216L118.985 20.4853C119.836 20.915 120.518 21.3907 121.023 21.9143C121.97 22.8926 122.445 24.0816 122.445 25.4813C122.445 26.7851 121.936 28.0179 120.922 29.1778C119.904 30.3376 118.275 30.9154 116.033 30.9154C115.52 30.9154 115 30.8695 114.473 30.7715C113.947 30.6734 113.425 30.5233 112.91 30.3209L112.412 30.1311C112.295 30.0956 112.182 30.0706 112.076 30.0476C111.967 30.0289 111.877 30.0163 111.802 30.0163C111.535 30.0163 111.354 30.0935 111.256 30.25C111.154 30.4064 111.068 30.6276 110.993 30.9133H110.246V24.4988L110.244 24.5093Z" fill="white"/>
<path d="M125.852 27.1853C126.277 26.7577 126.795 26.5449 127.404 26.5449C128.013 26.5449 128.528 26.7577 128.954 27.1853C129.379 27.6109 129.592 28.1261 129.592 28.7332C129.592 29.3402 129.377 29.8575 128.954 30.2831C128.528 30.7086 128.009 30.9214 127.404 30.9214C126.799 30.9214 126.279 30.7086 125.852 30.2831C125.426 29.8575 125.213 29.3402 125.213 28.7332C125.213 28.1261 125.426 27.6088 125.852 27.1853Z" fill="white"/>
<path d="M138.96 29.898C139.924 29.8709 140.541 29.6894 140.819 29.3473C141.098 29.0052 141.236 28.5004 141.236 27.8349V15.5629C140.443 14.6763 139.953 14.1569 139.771 13.9984C139.584 13.844 139.331 13.7439 139.01 13.7001V13.043H144.503L153.41 23.8694H153.535V16.2596C153.535 15.3814 153.376 14.7535 153.059 14.3801C152.74 14.0046 152.1 13.7772 151.142 13.7001V13.043H156.712V13.7001C155.903 13.8357 155.362 14.0171 155.085 14.2424C154.812 14.4698 154.674 14.9746 154.674 15.7652V31.0349H153.952L142.55 17.1816H142.375V27.3405C142.375 28.1374 142.485 28.7006 142.704 29.0323C143.053 29.5663 143.76 29.8542 144.83 29.8959V30.553H138.96V29.8959V29.898Z" fill="white"/>
<path d="M157.649 29.899C158.271 29.8573 158.773 29.5756 159.153 29.05C159.397 28.7204 159.747 27.9944 160.204 26.8742L165.96 12.6914H166.681L172.464 26.3068C173.113 27.8317 173.599 28.8184 173.92 29.2607C174.241 29.7029 174.694 29.9157 175.286 29.899V30.5561H166.896V29.899C167.741 29.8656 168.296 29.7947 168.563 29.6841C168.826 29.5756 168.959 29.2961 168.959 28.8497C168.959 28.6453 168.893 28.3386 168.757 27.9235C168.674 27.6774 168.559 27.3853 168.415 27.037L167.758 25.4683H161.94C161.558 26.4988 161.314 27.1684 161.204 27.4792C160.978 28.1467 160.863 28.6328 160.863 28.9352C160.863 29.3065 161.114 29.5777 161.608 29.7446C161.904 29.8364 162.347 29.8885 162.937 29.899V30.5561H157.651V29.899H157.649ZM167.376 24.4461L164.883 18.4488H164.666L162.328 24.4461H167.376Z" fill="white"/>
<path d="M181.58 13.043V13.6771C180.651 13.7293 180.053 13.8085 179.779 13.9128C179.504 14.0171 179.366 14.2821 179.366 14.7055C179.366 14.839 179.377 14.9642 179.398 15.0789C179.419 15.1957 179.458 15.3188 179.519 15.4544L183.626 25.0417H183.584L186.982 16.2638C187.06 16.0698 187.126 15.8737 187.185 15.6693C187.289 15.3397 187.337 15.0727 187.337 14.8703C187.337 14.3801 187.191 14.0735 186.901 13.9525C186.611 13.8294 186.019 13.7397 185.122 13.6792V13.0451H190.641V13.6792C190.007 13.746 189.534 13.9316 189.219 14.2299C188.902 14.5282 188.595 15.056 188.299 15.8049L182.391 31.039H181.709L175.04 15.5128C174.771 14.8891 174.493 14.4406 174.212 14.1652C173.93 13.892 173.488 13.7293 172.887 13.6792V13.0451H181.58V13.043Z" fill="white"/>
<path d="M189.269 29.899C189.894 29.8573 190.397 29.5756 190.777 29.05C191.021 28.7204 191.369 27.9944 191.826 26.8742L197.583 12.6914H198.305L204.088 26.3068C204.738 27.8317 205.225 28.8184 205.546 29.2607C205.865 29.7029 206.32 29.9157 206.912 29.899V30.5561H198.522V29.899C199.367 29.8656 199.92 29.7947 200.187 29.6841C200.454 29.5756 200.585 29.2961 200.585 28.8497C200.585 28.6453 200.516 28.3386 200.383 27.9235C200.297 27.6774 200.183 27.3853 200.041 27.037L199.379 25.4683H193.562C193.182 26.4988 192.936 27.1684 192.827 27.4792C192.598 28.1467 192.483 28.6328 192.483 28.9352C192.483 29.3065 192.731 29.5777 193.232 29.7446C193.524 29.8364 193.968 29.8885 194.561 29.899V30.5561H189.271V29.899H189.269ZM198.998 24.4461L196.505 18.4488H196.288L193.95 24.4461H199H198.998Z" fill="white"/>
<path d="M208.942 29.898C209.651 29.8709 210.158 29.777 210.461 29.6185C210.976 29.3494 211.235 28.8341 211.235 28.0727V15.5232C211.235 14.7681 210.991 14.2633 210.498 14.0025C210.212 13.8419 209.693 13.7418 208.942 13.7001V13.043H218.002V13.7001C216.948 13.7334 216.245 13.8815 215.895 14.1423C215.544 14.4031 215.369 15.0435 215.369 16.0677V28.3147C215.369 28.8863 215.517 29.268 215.818 29.4558C216.118 29.6414 216.7 29.7332 217.57 29.7332C219.13 29.7332 220.44 29.3911 221.5 28.7027C222.555 28.0164 223.471 26.6772 224.239 24.685H224.998L223.947 30.5572H208.94V29.9001L208.942 29.898Z" fill="white"/>
<path d="M83.1592 54.1769C83.8935 54.1623 84.4191 54.0726 84.7404 53.9161C85.264 53.645 85.5247 53.1255 85.5247 52.3579V39.8063C85.5247 39.0449 85.2765 38.5338 84.7779 38.2731C84.4755 38.1146 83.9352 38.0186 83.1592 37.9852V37.3281H92.2167V37.9852C91.4094 38.0186 90.8503 38.1125 90.5479 38.2606C90.043 38.5213 89.7885 39.0345 89.7885 39.8063V52.3579C89.7885 53.0817 89.9909 53.5678 90.3977 53.8118C90.8003 54.0601 91.4094 54.179 92.2167 54.179V54.8382H83.1592V54.179V54.1769Z" fill="white"/>
<path d="M93.245 54.1769C94.2067 54.1539 94.8262 53.9683 95.1037 53.6304C95.3832 53.2862 95.523 52.7834 95.523 52.118V39.8439C94.7303 38.9594 94.238 38.4379 94.0523 38.2793C93.8667 38.125 93.6143 38.0269 93.2951 37.9852V37.3281H98.7834L107.691 48.1546H107.816V40.5406C107.816 39.6624 107.657 39.0387 107.34 38.6611C107.019 38.2856 106.383 38.0603 105.425 37.9852V37.3281H110.993V37.9852C110.183 38.1187 109.641 38.3002 109.368 38.5255C109.095 38.7529 108.957 39.2598 108.957 40.0462V55.32H108.235L96.8351 41.4626H96.6577V51.6236C96.6577 52.4205 96.7683 52.9837 96.9853 53.3154C97.3315 53.8494 98.0408 54.1373 99.1109 54.1769V54.8361H93.2388V54.1769H93.245Z" fill="white"/>
<path d="M112.97 48.7865H113.717C114.13 50.7244 114.795 52.1283 115.715 53.0107C116.637 53.8889 117.689 54.3269 118.876 54.3269C120.063 54.3269 120.851 54.0265 121.341 53.4258C121.827 52.8208 122.072 52.1867 122.072 51.5171C122.072 50.7411 121.815 50.1111 121.308 49.6188C120.97 49.2996 120.292 48.8783 119.266 48.3651L117.616 47.5286C115.978 46.6984 114.823 45.8827 114.149 45.0713C113.475 44.2598 113.139 43.2585 113.139 42.0695C113.139 40.8054 113.586 39.6205 114.476 38.5233C115.369 37.426 116.735 36.8774 118.575 36.8774C119.512 36.8774 120.419 37.0213 121.293 37.3071C122.17 37.595 122.67 37.7389 122.791 37.7389C123.073 37.7389 123.269 37.6555 123.379 37.4907C123.488 37.328 123.571 37.1089 123.638 36.8398H124.412V42.4825H123.69C123.352 41.1767 122.756 40.0481 121.905 39.1032C121.049 38.1582 120.015 37.6889 118.792 37.6889C117.935 37.6889 117.255 37.9267 116.756 38.4044C116.258 38.8821 116.01 39.462 116.01 40.1441C116.01 40.966 116.241 41.5772 116.71 41.9798C117.167 42.3949 118.198 43.004 119.794 43.8092L121.706 44.7688C122.56 45.2006 123.24 45.6762 123.747 46.2019C124.694 47.1781 125.169 48.3672 125.169 49.7648C125.169 51.0727 124.662 52.3035 123.644 53.4633C122.626 54.6231 120.999 55.2031 118.761 55.2031C118.244 55.2031 117.724 55.153 117.196 55.057C116.671 54.9611 116.149 54.813 115.636 54.6085L115.14 54.4187C115.023 54.3874 114.91 54.3582 114.804 54.3374C114.695 54.3144 114.604 54.3061 114.528 54.3061C114.266 54.3061 114.08 54.3812 113.982 54.5397C113.884 54.6962 113.796 54.9173 113.719 55.2031H112.972V48.7886L112.97 48.7865Z" fill="white"/>
<path d="M127.673 37.3223H143.274L143.301 42.5457H142.552C142.308 40.6745 141.607 39.4145 140.452 38.7533C139.803 38.3903 138.833 38.19 137.544 38.1567V51.8076C137.544 52.7609 137.711 53.395 138.042 53.7079C138.376 54.0188 139.071 54.1731 140.122 54.1731V54.8323H130.887V54.1731C131.899 54.1731 132.573 54.0188 132.905 53.6996C133.238 53.3846 133.405 52.7525 133.405 51.8076V38.1567C132.141 38.19 131.169 38.3903 130.495 38.7533C129.254 39.4291 128.555 40.6954 128.395 42.5457H127.65L127.675 37.3223H127.673Z" fill="white"/>
<path d="M145.208 54.1769C145.942 54.1623 146.47 54.0726 146.789 53.9161C147.312 53.645 147.575 53.1255 147.575 52.3579V39.8063C147.575 39.0449 147.327 38.5338 146.828 38.2731C146.524 38.1146 145.984 38.0186 145.208 37.9852V37.3281H154.267V37.9852C153.458 38.0186 152.901 38.1125 152.598 38.2606C152.094 38.5213 151.837 39.0345 151.837 39.8063V52.3579C151.837 53.0817 152.039 53.5678 152.446 53.8118C152.849 54.0601 153.456 54.179 154.265 54.179V54.8382H145.206V54.179L145.208 54.1769Z" fill="white"/>
<path d="M156.078 37.3223H171.679L171.704 42.5457H170.957C170.713 40.6745 170.012 39.4145 168.857 38.7533C168.208 38.3903 167.238 38.19 165.947 38.1567V51.8076C165.947 52.7609 166.112 53.395 166.445 53.7079C166.777 54.0188 167.472 54.1731 168.527 54.1731V54.8323H159.29V54.1731C160.302 54.1731 160.976 54.0188 161.308 53.6996C161.641 53.3846 161.806 52.7525 161.806 51.8076V38.1567C160.54 38.19 159.572 38.3903 158.898 38.7533C157.657 39.4291 156.956 40.6954 156.798 42.5457H156.051L156.076 37.3223H156.078Z" fill="white"/>
<path d="M181.333 37.3223V37.9794C180.33 38.0127 179.658 38.1671 179.322 38.4466C178.984 38.7199 178.815 39.354 178.815 40.3449V49.029C178.815 50.3494 178.97 51.3653 179.283 52.0829C179.846 53.4222 180.931 54.0876 182.535 54.0876C184.525 54.0876 185.868 53.3491 186.569 51.8722C186.957 51.0629 187.151 49.9239 187.151 48.4658V40.5368C187.151 39.6106 186.98 38.9702 186.638 38.6198C186.298 38.2714 185.628 38.0586 184.635 37.9814V37.3244H190.328V37.9814C189.502 38.1421 188.956 38.3382 188.689 38.5697C188.424 38.8013 188.29 39.3353 188.29 40.1697V48.4553C188.29 50.6561 187.76 52.3604 186.696 53.5557C185.635 54.7551 183.964 55.3559 181.686 55.3559C178.709 55.3559 176.671 54.4652 175.574 52.6816C174.994 51.7387 174.702 50.5163 174.702 49.0227V40.347C174.702 39.377 174.572 38.7616 174.316 38.5092C174.059 38.2568 173.479 38.0816 172.576 37.9814V37.3244H181.331L181.333 37.3223Z" fill="white"/>
<path d="M191.557 37.3223H207.158L207.183 42.5457H206.439C206.193 40.6745 205.492 39.4145 204.338 38.7533C203.689 38.3903 202.717 38.19 201.428 38.1567V51.8076C201.428 52.7609 201.595 53.395 201.927 53.7079C202.26 54.0188 202.953 54.1731 204.009 54.1731V54.8323H194.772V54.1731C195.783 54.1731 196.455 54.0188 196.789 53.6996C197.123 53.3846 197.29 52.7525 197.29 51.8076V38.1567C196.023 38.19 195.053 38.3903 194.38 38.7533C193.138 39.4291 192.44 40.6954 192.279 42.5457H191.534L191.559 37.3223H191.557Z" fill="white"/>
<path d="M208.058 54.8361V54.1769C208.802 54.1539 209.328 54.0538 209.639 53.8765C210.121 53.6053 210.361 53.0984 210.361 52.3579V39.8063C210.361 39.0533 210.112 38.5443 209.616 38.2856C209.328 38.1271 208.809 38.0249 208.058 37.9852V37.3281H222.989V42.5515H222.355C222.028 40.8827 221.469 39.7396 220.68 39.1242C219.89 38.5067 218.454 38.198 216.37 38.198C215.578 38.198 215.075 38.2793 214.86 38.4462C214.643 38.611 214.537 38.9364 214.537 39.4267V45.424C216.012 45.4406 217.011 45.1736 217.536 44.6208C218.058 44.068 218.458 43.0584 218.738 41.5919H219.395V50.347H218.738C218.552 48.8701 218.175 47.8312 217.605 47.2284C217.034 46.6255 216.012 46.323 214.537 46.323V52.5999C214.537 53.1464 214.679 53.5198 214.96 53.718C215.242 53.9161 215.824 54.0142 216.702 54.0142C218.354 54.0142 219.706 53.6929 220.751 53.0525C221.798 52.4121 222.726 51.2085 223.534 49.4458H224.258L223.206 54.8361H208.06H208.058Z" fill="white"/>
</g>
<defs>
<clipPath id="clip0_15652_13978">
<rect width="225" height="64.3933" fill="white"/>
</clipPath>
</defs>
</svg>
